<svg height="512pt" viewBox="0 0 512.00055 512" width="512pt" xmlns="http://www.w3.org/2000/svg"><g fill="#ed0046"><path d="m79.265625 512c-8.28125 0-15-6.714844-15-15v-144.601562c0-5.011719 2.507813-9.695313 6.679687-12.480469l144.601563-96.398438c6.890625-4.59375 16.207031-2.734375 20.800781 4.160157 4.59375 6.894531 2.734375 16.207031-4.160156 20.800781l-137.921875 91.949219v136.570312c0 8.285156-6.714844 15-15 15zm0 0"/><path d="m5.628906 348.046875c-6.46875-5.175781-7.515625-14.613281-2.339844-21.082031l64.265626-80.335938c2.847656-3.554687 7.15625-5.628906 11.714843-5.628906h144.597657c8.285156 0 15 6.71875 15 15 0 8.285156-6.714844 15-15 15h-137.390626l-59.761718 74.707031c-4.917969 6.144531-14.308594 7.761719-21.085938 2.339844zm0 0"/><path d="m223.859375 271.003906c-2.105469 0-4.242187-.445312-6.277344-1.382812l-208.867187-96.402344c-5.3125-2.453125-8.714844-7.769531-8.714844-13.617188v-96.402343c0-8.28125 6.71875-15 15-15 8.285156 0 15 6.71875 15 15v86.804687l200.152344 92.375c7.523437 3.472656 10.808594 12.386719 7.335937 19.90625-2.53125 5.488282-7.960937 8.71875-13.628906 8.71875zm0 0"/><path d="m223.855469 222.804688c-2.253907 0-4.542969-.511719-6.695313-1.589844l-128.535156-64.265625c-5.082031-2.539063-8.289062-7.734375-8.289062-13.414063v-128.535156c0-8.285156 6.714843-15 15-15 8.28125 0 15 6.714844 15 15v119.261719l120.238281 60.121093c7.410156 3.707032 10.414062 12.714844 6.707031 20.125-2.625 5.257813-7.921875 8.296876-13.425781 8.296876zm0 0"/></g><path d="m432.734375 512c-8.285156 0-15-6.714844-15-15v-136.570312l-137.921875-91.949219c-6.890625-4.59375-8.753906-13.90625-4.160156-20.800781 4.597656-6.890626 13.910156-8.753907 20.800781-4.160157l144.601563 96.398438c4.171874 2.785156 6.679687 7.46875 6.679687 12.480469v144.601562c0 8.285156-6.71875 15-15 15zm0 0" fill="#d5003b"/><path d="m485.289062 345.703125-59.765624-74.703125h-137.390626c-8.285156 0-15-6.714844-15-15s6.714844-15 15-15h144.601563c4.554687 0 8.863281 2.070312 11.710937 5.628906l64.269532 80.332032c5.171875 6.46875 4.125 15.910156-2.34375 21.085937-6.800782 5.441406-16.183594 3.785156-21.082032-2.34375zm0 0" fill="#d5003b"/><path d="m288.140625 271.003906c-5.667969 0-11.09375-3.230468-13.628906-8.71875-3.46875-7.519531-.1875-16.433594 7.335937-19.90625l200.152344-92.375v-86.804687c0-8.28125 6.714844-15 15-15 8.28125 0 15 6.71875 15 15v96.402343c0 5.851563-3.402344 11.164063-8.714844 13.617188l-208.867187 96.402344c-2.035157.9375-4.171875 1.382812-6.277344 1.382812zm0 0" fill="#d5003b"/><path d="m288.144531 222.804688c-5.503906 0-10.800781-3.039063-13.429687-8.296876-3.703125-7.410156-.699219-16.417968 6.710937-20.125l120.238281-60.121093v-119.261719c0-8.285156 6.71875-15 15-15 8.285157 0 15 6.714844 15 15v128.535156c0 5.679688-3.207031 10.875-8.289062 13.414063l-128.535156 64.269531c-2.152344 1.074219-4.441406 1.585938-6.695313 1.585938zm0 0" fill="#d5003b"/><path d="m363.007812 341.792969-59.875-59.875v-74.117188c0-25.988281-21.144531-47.132812-47.132812-47.132812s-47.132812 21.144531-47.132812 47.132812v74.121094l-59.875 59.871094c-2.8125 2.8125-4.390626 6.628906-4.390626 10.605469v16.085937c0 61.414063 49.964844 111.382813 111.398438 111.382813s111.398438-49.96875 111.398438-111.382813v-16.085937c0-3.976563-1.578126-7.792969-4.390626-10.605469zm0 0" fill="#ff5c79"/><path d="m367.398438 368.484375v-16.085937c0-3.976563-1.578126-7.792969-4.390626-10.605469l-59.875-59.871094v-74.121094c0-25.988281-21.144531-47.132812-47.132812-47.132812v319.199219c61.433594 0 111.398438-49.96875 111.398438-111.382813zm0 0" fill="#fe2e55"/></svg>